<?xml version="1.0" encoding="UTF-8" standalone="no"?>
<!-- Created with Inkscape (http://www.inkscape.org/) -->

<svg
   width="120"
   height="120"
   viewBox="0 0 120 120"
   version="1.1"
   id="svg5"
   xml:space="preserve"
   xmlns:xlink="http://www.w3.org/1999/xlink"
   xmlns="http://www.w3.org/2000/svg"
   xmlns:svg="http://www.w3.org/2000/svg"
   xmlns:rdf="http://www.w3.org/1999/02/22-rdf-syntax-ns#"
   xmlns:cc="http://creativecommons.org/ns#"><defs
     id="defs2" /><g
     id="layer10"
     style="display:inline"
     transform="translate(129.81435)"><rect
       style="display:inline;fill:#737373;fill-opacity:1;fill-rule:evenodd;stroke:none;stroke-width:0;stroke-linejoin:round;stroke-dasharray:none;paint-order:stroke fill markers"
       id="rect27124"
       width="10"
       height="100.00001"
       x="-129.81435"
       y="10"
       ry="5.0000005"
       rx="5" /><use
       x="0"
       y="0"
       xlink:href="#rect27124"
       id="use27128"
       transform="translate(110)"
       style="display:inline;fill:#737373;fill-opacity:1" /><g
       id="g68931"
       style="display:inline"
       transform="matrix(3.6210804,0,0,3.6210804,-122.11895,5.4204674)"><g
         id="g65746"
         transform="matrix(0.90923324,0.21590176,-0.21590176,0.90923324,3.0494386,-5.6996372)"
         style="display:inline;fill:#737373;fill-opacity:1"><path
           id="path65628"
           style="fill:#737373;fill-opacity:1;stroke-width:1.5;stroke-linecap:square;stroke-miterlimit:2.9;paint-order:stroke fill markers"
           class="UnoptimicedTransforms"
           d="m -2.2561564,6.5461186 c -0.4665819,1.8249101 0.039327,5.6074144 1.2031742,7.6397034 0.35686941,0.623158 1.31622355,2.327475 3.5529823,2.327475 2.2367588,0 3.1961129,-1.704317 3.5529823,-2.327475 C 7.21683,12.153533 7.7227385,8.3710287 7.2561566,6.5461186 5.9385872,6.8024013 4.286908,6.9554692 2.5000001,6.9554692 c -1.7869079,0 -3.43858705,-0.1530679 -4.7561565,-0.4093506 z"
           transform="matrix(0.43180054,0,0,1.7272022,23.719488,0.341967)" /><path
           id="path65682"
           style="fill:#737373;fill-opacity:1;stroke-width:1.23;stroke-linecap:square;stroke-miterlimit:2.9;paint-order:stroke fill markers"
           d="m 27.36149,8.9977386 c 0,1.4152294 -1.14727,2.5625004 -2.5625,2.5625004 -1.41523,0 -2.5625,-1.147271 -2.5625,-2.5625004 0,-1.4152298 1.184819,-2.342444 1.79375,-5.33 2.280467,2.0825163 3.33125,3.9147702 3.33125,5.33 z" /></g><path
         id="path65698"
         style="fill:#737373;fill-opacity:1;stroke-width:1.56642;stroke-linecap:square;stroke-miterlimit:2.9;paint-order:stroke fill markers"
         d="m 11.613192,23.385422 c 1.616213,-0.807252 2.498706,-2.509057 2.891129,-4.184951 0.244331,-1.017556 0.672481,-2.028337 1.511288,-2.710498 0.898452,-0.93959 1.930616,-1.775607 2.690595,-2.831657 C 19.763556,11.866523 19.104622,9.5095787 17.608469,8.1816803 14.724726,5.4596521 9.7730415,5.0401032 6.5947401,7.5656369 3.8983538,9.8191662 2.0777222,13.19963 2.0202298,16.709622 c 0.2339626,3.021877 2.5436565,5.638873 5.3503365,6.68656 1.3534371,0.477572 2.8962137,0.550592 4.2426257,-0.01076 z m 2.927359,-6.864994 c -1.017701,0.741172 -2.43347,-0.452684 -1.439473,-1.468703 0.52829,-1.120607 3.152647,-1.433105 2.604482,0.299232 -0.213115,0.523344 -0.657555,0.930114 -1.165009,1.169471 z m -7.4595543,2.380338 c -1.3343184,0.819074 -4.6235007,0.08213 -3.7583006,-1.951472 1.1136268,-1.52144 4.405694,-1.437204 4.8200636,0.60417 -0.00144,0.624923 -0.5304985,1.106273 -1.061757,1.347257 z M 8.3557038,14.154524 C 7.0213864,14.9736 3.7322045,14.236654 4.5974026,12.203052 5.7110302,10.68161 9.0030981,10.765847 9.417458,12.80726 9.4159985,13.432183 8.886961,13.913533 8.3557042,14.154519 Z M 11.653666,9.9241809 c -1.387772,0.8084711 -4.5902584,0.082002 -3.7583007,-1.9514718 1.1137654,-1.52138 4.4057687,-1.4373509 4.8206067,0.6039705 -0.0015,0.6251432 -0.530837,1.1065584 -1.062307,1.347504 z" /></g></g><metadata
     id="metadata69257"><rdf:RDF><cc:Work
         rdf:about=""><cc:license
           rdf:resource="http://scripts.sil.org/OFL" /></cc:Work><cc:License
         rdf:about="http://scripts.sil.org/OFL"><cc:permits
           rdf:resource="http://scripts.sil.org/pub/OFL/Reproduction" /><cc:permits
           rdf:resource="http://scripts.sil.org/pub/OFL/Distribution" /><cc:permits
           rdf:resource="http://scripts.sil.org/pub/OFL/Embedding" /><cc:permits
           rdf:resource="http://scripts.sil.org/pub/OFL/DerivativeWorks" /><cc:requires
           rdf:resource="http://scripts.sil.org/pub/OFL/Notice" /><cc:requires
           rdf:resource="http://scripts.sil.org/pub/OFL/Attribution" /><cc:requires
           rdf:resource="http://scripts.sil.org/pub/OFL/ShareAlike" /><cc:requires
           rdf:resource="http://scripts.sil.org/pub/OFL/DerivativeRenaming" /><cc:requires
           rdf:resource="http://scripts.sil.org/pub/OFL/BundlingWhenSelling" /></cc:License></rdf:RDF></metadata></svg>
