<?xml version="1.0" encoding="UTF-8" standalone="no"?>
<!-- Created with Inkscape (http://www.inkscape.org/) -->

<svg
   width="120"
   height="120"
   viewBox="0 0 120 120"
   version="1.1"
   id="svg5"
   xml:space="preserve"
   xmlns="http://www.w3.org/2000/svg"
   xmlns:svg="http://www.w3.org/2000/svg"
   xmlns:rdf="http://www.w3.org/1999/02/22-rdf-syntax-ns#"
   xmlns:cc="http://creativecommons.org/ns#"><defs
     id="defs2" /><g
     id="layer13"
     transform="translate(-130,-260)"><path
       id="rect51842"
       style="display:none;fill:#737373;fill-opacity:1;fill-rule:evenodd;stroke:none;stroke-width:14.5;stroke-linecap:round;stroke-linejoin:round;stroke-dasharray:none;paint-order:stroke fill markers"
       d="m 149.05297,268.79765 c -3.9452,0 -7.12109,20.81334 -7.12109,46.66797 v 6.71875 c 0,25.85463 3.17589,46.66797 7.12109,46.66797 h 75.56054 c 3.94521,0 7.1211,-20.81334 7.1211,-46.66797 v -6.71875 c 0,-25.85463 -3.17589,-46.66797 -7.1211,-46.66797 z m 35.84961,8.99805 c 7.98542,0.24285 15.73254,4.18087 20.8164,10.32226 5.44765,6.37547 7.41814,15.46647 5.25391,23.54883 -0.94515,3.68937 -2.86917,7.07807 -5.38867,9.91797 -2.59156,2.89065 -6.41731,4.02532 -9.83985,5.58594 -1.64587,0.60333 -3.06155,1.90355 -3.54492,3.62109 -0.58128,1.49793 0.0487,3.07692 -0.20898,4.60938 -0.34994,2.82876 -2.76939,5.28966 -5.65235,5.46484 2.51319,0.60316 4.74641,2.25652 6.07032,4.47461 2.15248,3.48143 1.76095,8.29082 -0.9375,11.37109 -2.55884,3.10268 -7.11997,4.28779 -10.86914,2.83985 -3.81614,-1.36162 -6.5085,-5.29276 -6.375,-9.34571 0.006,-4.0718 2.85901,-7.92519 6.74414,-9.13476 0.41265,-0.15704 1.20827,-0.23118 0.34375,-0.3418 -2.66379,-0.60285 -5.11857,-2.72344 -5.48438,-5.52344 -0.0139,-3.57127 -0.0482,-7.15898 0.3086,-10.71875 -0.11661,-3.87244 2.51559,-7.60987 6.18554,-8.83593 3.4903,-0.92485 6.81752,-2.69754 9.23438,-5.41992 1.0053,-1.18649 2.06956,-2.468 2.2539,-4.07032 0.6514,-2.99809 -0.33587,-6.32994 -2.69531,-8.33398 -2.22787,-1.67419 -5.18127,-2.25763 -7.91601,-1.90235 -3.59203,0.63578 -6.45102,3.07402 -9.59571,4.74024 -2.86463,1.81127 -7.0925,1.44864 -9.32031,-1.20899 -1.16341,-1.30615 -1.29422,-3.10351 -1.42578,-4.76171 -0.31343,-2.76545 -0.10289,-5.88209 1.86133,-8.03907 1.38555,-1.19494 2.96104,-2.16284 4.4414,-3.24023 4.19447,-2.8864 8.93469,-5.45876 14.14063,-5.61719 0.53376,-0.0171 1.06725,-0.0181 1.59961,-0.002 z" /><path
       id="path50879"
       style="color:#000000;display:inline;fill:#737373;fill-opacity:1;fill-rule:evenodd;stroke-width:1.02713;stroke-linecap:round;-inkscape-stroke:none"
       d="m 215.36194,267.91275 c -0.49291,-0.005 -0.9867,0.003 -1.4796,0.004 -20.44585,2.15568 -40.62482,6.82869 -59.92822,13.90606 -5.99886,3.43622 -7.09758,12.86727 -2.04051,17.58439 2.98459,2.58528 6.89908,4.03237 10.839,4.11339 1.59789,0.49547 1.7555,3.10283 0.23012,3.78798 -3.61798,3.20684 -7.93998,6.09304 -9.82324,10.74372 -1.85881,5.6701 1.06084,12.04943 5.88244,15.26161 1.48326,1.18001 3.10098,2.2619 4.97095,2.67874 1.55093,0.6957 1.65146,2.95235 0.45844,4.02889 -2.21035,3.93426 -4.89557,8.10324 -4.49812,12.8148 0.91657,8.69223 8.52522,15.87875 17.08639,16.98391 7.06039,1.44542 14.29632,1.49732 21.44069,2.26883 6.01252,-0.0551 11.01159,-5.5194 11.41609,-11.36216 0.42907,-3.16246 -1.08247,-6.31901 -3.39606,-8.41735 -1.18858,-1.37815 -2.48074,-2.66198 -3.73765,-3.97675 -0.60228,-1.82833 0.952,-3.56602 2.5475,-4.21946 7.23482,-4.58784 14.47898,-9.16611 21.54496,-14.01214 6.2557,-6.24142 5.81139,-17.74817 -0.95285,-23.45244 -2.93498,-1.80326 -6.27681,-3.29392 -9.79446,-3.12279 -1.69053,-0.12948 -1.98031,-2.97248 -0.35238,-3.44281 6.0603,-2.62691 11.66955,-7.19282 14.00495,-13.5393 2.53498,-8.36104 -4.19943,-18.08014 -12.94244,-18.5624 -0.49155,-0.0455 -0.9831,-0.0634 -1.476,-0.0683 z m -31.21359,9.56794 c 0.59473,-1.3e-4 1.18882,0.0195 1.77983,0.0594 8.2699,0.55762 16.07618,4.96412 20.98226,11.60846 6.91615,9.1061 7.20402,22.70873 -0.31822,31.65763 -3.07803,4.23243 -7.88437,5.23859 -11.10328,6.8173 a 2.3014285,2.3014285 0 0 1 -0.13664,0.0611 c -2.15913,0.89115 -3.36509,3.13595 -3.08504,5.52108 l -0.0215,-0.14382 c 0.65465,3.592 -1.73014,7.10172 -5.28376,7.82407 4.09248,1.28745 7.13911,4.98836 7.13911,9.48884 0,5.54496 -4.54433,10.08931 -10.08932,10.08931 -5.54496,0 -10.08931,-4.54435 -10.08931,-10.08931 0,-4.51835 3.07202,-8.22744 7.18945,-9.49963 -0.3878,-0.10738 -0.78656,-0.12117 -1.16498,-0.27867 -1.98456,-0.82591 -3.85763,-2.57846 -4.39025,-5.0842 a 2.3014285,2.3014285 0 0 1 -0.0503,-0.50339 c 0.0371,-3.31551 -0.024,-6.7736 0.3326,-10.31763 -0.16099,-4.23307 2.54403,-8.07128 6.5602,-9.38637 a 2.3014285,2.3014285 0 0 1 0.13124,-0.0396 c 4.45415,-1.1675 8.509,-3.96347 10.65023,-7.8798 1.16952,-3.79853 0.33613,-6.59915 -1.7205,-8.82725 -1.66573,-1.80459 -6.21443,-2.77899 -8.54859,-2.27783 a 2.3014285,2.3014285 0 0 1 -0.0377,0.009 c -2.99998,0.59128 -6.27621,3.27352 -10.1001,5.14893 a 2.3014285,2.3014285 0 0 1 -0.11505,0.0521 c -1.89891,0.80609 -4.00751,0.81582 -5.9184,0.0701 -1.91089,-0.7457 -3.6978,-2.53972 -3.98754,-4.98173 a 2.3014285,2.3014285 0 0 1 -0.004,-0.0306 c -0.1408,-1.34206 -0.38585,-2.99391 -0.28046,-4.77678 0.1054,-1.78288 0.62967,-3.80996 2.13041,-5.43119 a 2.3014285,2.3014285 0 0 1 0.35237,-0.30922 c 4.84505,-3.45506 10.28835,-7.80823 17.34887,-8.48387 a 2.3014285,2.3014285 0 0 1 0.0611,-0.006 c 0.59691,-0.0411 1.1923,-0.061 1.78703,-0.0611 z m 32.77768,19.64468 c 0.0149,-0.004 0.0542,0.0377 0.13484,0.16361 0.002,0.26093 -0.1796,-0.15291 -0.13484,-0.16361 z m -30.88818,44.01579 c -0.15658,0.0319 -0.32661,0.006 -0.48541,0.0306 -0.0267,-8.3e-4 -0.0468,0.0156 -0.0737,0.0144 z" /><path
       id="path44094"
       style="display:inline;fill:#737373;fill-opacity:1;fill-rule:evenodd;stroke-width:13.5746;stroke-linecap:round;stroke-linejoin:round;paint-order:stroke fill markers"
       d="m 191.80006,350.37479 c 0,4.30143 -3.487,7.78841 -7.78843,7.78841 -4.30142,0 -7.78842,-3.48698 -7.78842,-7.78841 0,-4.30142 3.487,-7.78841 7.78842,-7.78841 4.30143,0 7.78843,3.48699 7.78843,7.78841 z m -9.28127,-70.5364 c -6.21061,0.59431 -11.33226,4.57207 -16.23237,8.06639 -2.09781,2.26624 -1.54113,5.60732 -1.24794,8.40187 0.36967,3.11564 4.15956,4.15409 6.72139,3.06658 3.42284,-1.67872 6.82562,-4.58537 10.66818,-5.34271 3.22499,-0.69244 8.2077,0.24182 10.72319,2.96702 2.60269,2.81967 3.66238,6.72362 2.17351,11.30472 -2.47439,4.68582 -7.15645,7.86464 -12.21073,9.18944 -3.04484,0.99702 -5.09656,3.91404 -4.97499,7.11083 -0.37664,3.46402 -0.29315,6.95338 -0.33209,10.43152 0.72569,3.414 4.74999,4.46937 7.77148,3.85284 2.97973,0.12911 4.92247,-2.56968 4.40427,-5.41306 -0.3923,-3.341 1.3476,-6.6182 4.49251,-7.91622 3.58129,-1.75646 7.83064,-2.71334 10.29306,-6.13673 6.82484,-8.02705 6.58752,-20.63206 0.29954,-28.89633 -5.13759,-6.96453 -13.86126,-11.2843 -22.54901,-10.68616 z" /></g><metadata
     id="metadata69257"><rdf:RDF><cc:Work
         rdf:about=""><cc:license
           rdf:resource="http://scripts.sil.org/OFL" /></cc:Work><cc:License
         rdf:about="http://scripts.sil.org/OFL"><cc:permits
           rdf:resource="http://scripts.sil.org/pub/OFL/Reproduction" /><cc:permits
           rdf:resource="http://scripts.sil.org/pub/OFL/Distribution" /><cc:permits
           rdf:resource="http://scripts.sil.org/pub/OFL/Embedding" /><cc:permits
           rdf:resource="http://scripts.sil.org/pub/OFL/DerivativeWorks" /><cc:requires
           rdf:resource="http://scripts.sil.org/pub/OFL/Notice" /><cc:requires
           rdf:resource="http://scripts.sil.org/pub/OFL/Attribution" /><cc:requires
           rdf:resource="http://scripts.sil.org/pub/OFL/ShareAlike" /><cc:requires
           rdf:resource="http://scripts.sil.org/pub/OFL/DerivativeRenaming" /><cc:requires
           rdf:resource="http://scripts.sil.org/pub/OFL/BundlingWhenSelling" /></cc:License></rdf:RDF></metadata></svg>
