<?xml version="1.0" encoding="UTF-8" standalone="no"?>
<!-- Created with Inkscape (http://www.inkscape.org/) -->

<svg
   width="120"
   height="120"
   viewBox="0 0 120 120"
   version="1.1"
   id="svg5"
   xml:space="preserve"
   xmlns="http://www.w3.org/2000/svg"
   xmlns:svg="http://www.w3.org/2000/svg"
   xmlns:rdf="http://www.w3.org/1999/02/22-rdf-syntax-ns#"
   xmlns:cc="http://creativecommons.org/ns#"><defs
     id="defs2" /><g
     id="layer11"
     style="display:inline"
     transform="translate(0,-260)"><path
       id="path61190"
       style="display:inline;fill:#737373;fill-opacity:1;stroke:none;stroke-width:1.5;stroke-linecap:square;stroke-linejoin:miter;stroke-miterlimit:2.9;stroke-dasharray:none;stroke-opacity:1;paint-order:stroke fill markers"
       d="m -58.84302,-80.001239 c -0.692498,0 -1.25,0.557504 -1.25,1.25 v 0.500976 c 0.416654,-1.22e-4 0.833343,-4.16e-4 1.25,-4.88e-4 v -0.500488 h 18.75 v 10.361328 3.767578 h -2.991211 c -0.0032,2.083526 -0.0051,4.166882 0,6.25 h 2.991211 c 0.692494,0 1.25,-0.557506 1.25,-1.25 v -8.916504 -10.212402 c 0,-0.692496 -0.557506,-1.25 -1.25,-1.25 z m -6.254395,14.234375 c -3.930997,0 -7.13086,3.199862 -7.130859,7.130859 0,3.930996 3.199863,7.13086 7.130859,7.130859 3.930996,1e-6 7.132812,-3.199863 7.132813,-7.130859 0,-3.930997 -3.201816,-7.130859 -7.132813,-7.130859 z m 0,1.263672 c 3.248368,0 5.869141,2.61882 5.869141,5.867187 0,3.248367 -2.620774,5.869141 -5.869141,5.869141 -3.248367,0 -5.867187,-2.620774 -5.867187,-5.869141 -10e-7,-3.248367 2.61882,-5.867187 5.867187,-5.867187 z m 1.053339,1.473109 v 8.420665 c 0,0.583131 -0.469452,1.052583 -1.052583,1.052583 -0.583131,0 -1.052583,-0.469452 -1.052583,-1.052583 v -8.420665 c 0,-0.583131 0.469452,-1.052583 1.052583,-1.052583 0.583131,0 1.052583,0.469452 1.052583,1.052583 z m -5.262915,3.15775 h 8.420665 c 0.583131,0 1.052583,0.469452 1.052583,1.052583 0,0.583131 -0.469452,1.052583 -1.052583,1.052583 h -8.420665 c -0.583131,0 -1.052583,-0.469452 -1.052583,-1.052583 0,-0.583131 0.469452,-1.052583 1.052583,-1.052583 z m 5.723248,-17.87868 c -0.692498,0 -1.25,0.557502 -1.25,1.25 v 10.212176 c 0.420641,0.01489 0.839098,0.06503 1.25,0.148926 v -10.361102 h 18.75 v 14.12868 h -13.583008 c 0.631915,1.135841 0.9776,2.429067 0.977539,3.736328 4e-5,0.857521 -0.149089,1.708722 -0.429687,2.513672 h 13.035156 c 0.692497,0 1.25,-0.557503 1.25,-1.25 v -19.12868 c 0,-0.692498 -0.557503,-1.25 -1.25,-1.25 z"
       transform="matrix(3.5944406,0,0,3.5944406,259.61959,561.6464)" /></g><metadata
     id="metadata69257"><rdf:RDF><cc:Work
         rdf:about=""><cc:license
           rdf:resource="http://scripts.sil.org/OFL" /></cc:Work><cc:License
         rdf:about="http://scripts.sil.org/OFL"><cc:permits
           rdf:resource="http://scripts.sil.org/pub/OFL/Reproduction" /><cc:permits
           rdf:resource="http://scripts.sil.org/pub/OFL/Distribution" /><cc:permits
           rdf:resource="http://scripts.sil.org/pub/OFL/Embedding" /><cc:permits
           rdf:resource="http://scripts.sil.org/pub/OFL/DerivativeWorks" /><cc:requires
           rdf:resource="http://scripts.sil.org/pub/OFL/Notice" /><cc:requires
           rdf:resource="http://scripts.sil.org/pub/OFL/Attribution" /><cc:requires
           rdf:resource="http://scripts.sil.org/pub/OFL/ShareAlike" /><cc:requires
           rdf:resource="http://scripts.sil.org/pub/OFL/DerivativeRenaming" /><cc:requires
           rdf:resource="http://scripts.sil.org/pub/OFL/BundlingWhenSelling" /></cc:License></rdf:RDF></metadata></svg>
