<?xml version="1.0" encoding="UTF-8" standalone="no"?>
<!-- Created with Inkscape (http://www.inkscape.org/) -->

<svg
   width="120"
   height="120"
   viewBox="0 0 120 120"
   version="1.1"
   id="svg5"
   xml:space="preserve"
   xmlns="http://www.w3.org/2000/svg"
   xmlns:svg="http://www.w3.org/2000/svg"
   xmlns:rdf="http://www.w3.org/1999/02/22-rdf-syntax-ns#"
   xmlns:cc="http://creativecommons.org/ns#"><defs
     id="defs2" /><g
     id="layer7"
     transform="matrix(8.7009603,0,0,8.7009603,-49.849625,-70.732669)"
     style="fill:#737373;fill-opacity:1"><path
       style="fill:#737373;fill-opacity:1;stroke:none;stroke-width:1.36026;stroke-linecap:square;stroke-linejoin:miter;stroke-miterlimit:2.9;stroke-dasharray:none;stroke-opacity:1;paint-order:stroke fill markers"
       d="M 19.049805,12.250242 12.875,15.182692 v 5.863293 l 5.723127,-2.717201 a 0.79087944,0.79087944 122.30139 0 0 0.451678,-0.714446 z"
       id="path68162" /><path
       style="fill:#737373;fill-opacity:1;stroke:none;stroke-width:1.36026;stroke-linecap:square;stroke-linejoin:miter;stroke-miterlimit:2.9;stroke-dasharray:none;stroke-opacity:1;paint-order:stroke fill markers"
       d="M 12.173324,9.1055634 6.4511719,11.822359 12.625,14.754408 18.798828,11.822359 13.076676,9.1055634 a 1.0531068,1.0531068 1.797837e-7 0 0 -0.903352,0 z"
       id="path65914" /><path
       id="path68177"
       style="display:inline;fill:#737373;fill-opacity:1;stroke:none;stroke-width:0.0141217;stroke-linecap:square;stroke-linejoin:bevel;stroke-miterlimit:2.9;stroke-dasharray:none;stroke-opacity:1;paint-order:stroke fill markers"
       d="m 6.2001953,12.25 v 1.789062 l 1.4106445,0.669922 v -1.789062 z m 1.6445313,0.78125 v 1.789062 L 12.375,16.971191 v -1.789062 z m -1.6445313,1.256348 v 1.789062 l 1.4106445,0.669922 V 14.95752 Z m 1.6445313,0.78125 V 16.85791 L 12.375,19.008789 v -1.789062 z m -1.6445313,1.256347 v 1.289063 a 0.79092589,0.79092589 0 0 0 0.4516602,0.714355 l 0.9589843,0.455567 v -1.789063 z m 1.6445313,0.78125 v 1.789063 L 12.375,21.046387 v -1.789063 z" /></g><metadata
     id="metadata69257"><rdf:RDF><cc:Work
         rdf:about=""><cc:license
           rdf:resource="http://scripts.sil.org/OFL" /></cc:Work><cc:License
         rdf:about="http://scripts.sil.org/OFL"><cc:permits
           rdf:resource="http://scripts.sil.org/pub/OFL/Reproduction" /><cc:permits
           rdf:resource="http://scripts.sil.org/pub/OFL/Distribution" /><cc:permits
           rdf:resource="http://scripts.sil.org/pub/OFL/Embedding" /><cc:permits
           rdf:resource="http://scripts.sil.org/pub/OFL/DerivativeWorks" /><cc:requires
           rdf:resource="http://scripts.sil.org/pub/OFL/Notice" /><cc:requires
           rdf:resource="http://scripts.sil.org/pub/OFL/Attribution" /><cc:requires
           rdf:resource="http://scripts.sil.org/pub/OFL/ShareAlike" /><cc:requires
           rdf:resource="http://scripts.sil.org/pub/OFL/DerivativeRenaming" /><cc:requires
           rdf:resource="http://scripts.sil.org/pub/OFL/BundlingWhenSelling" /></cc:License></rdf:RDF></metadata></svg>
