<?xml version="1.0" encoding="UTF-8" standalone="no"?>
<!-- Created with Inkscape (http://www.inkscape.org/) -->

<svg
   width="120"
   height="120"
   viewBox="0 0 120 120"
   version="1.1"
   id="svg5"
   xml:space="preserve"
   xmlns="http://www.w3.org/2000/svg"
   xmlns:svg="http://www.w3.org/2000/svg"
   xmlns:rdf="http://www.w3.org/1999/02/22-rdf-syntax-ns#"
   xmlns:cc="http://creativecommons.org/ns#"><defs
     id="defs2" /><g
     id="layer15"
     style="display:inline"
     transform="translate(0,-390)"><g
       id="g43661"
       transform="matrix(5.5527853,5.5527853,-5.5527853,5.5527853,71.897419,286.56418)"
       style="fill:#737373;fill-opacity:1"><path
         id="path43594"
         style="fill:#737373;fill-opacity:1;stroke:none;stroke-width:0.353385;stroke-linejoin:miter;stroke-dasharray:none;paint-order:stroke fill markers"
         d="m 13.611816,16.130859 a 3.0052037,3.0052037 0 0 0 -3.005371,3.005371 3.0052037,3.0052037 0 0 0 3.005371,3.004883 3.0052037,3.0052037 0 0 0 3.005372,-3.004883 3.0052037,3.0052037 0 0 0 -3.005372,-3.005371 z m 0,1.502442 a 1.5026013,1.5026013 0 0 1 1.502442,1.502929 1.5026013,1.5026013 0 0 1 -1.502442,1.502442 1.5026013,1.5026013 0 0 1 -1.502441,-1.502442 1.5026013,1.5026013 0 0 1 1.502441,-1.502929 z" /><rect
         style="fill:#737373;fill-opacity:1;stroke:none;stroke-width:0.363873;stroke-linejoin:miter;stroke-dasharray:none;paint-order:stroke fill markers"
         id="rect43596"
         width="1.5467961"
         height="7.7781744"
         x="12.860503"
         y="9.457552" /><rect
         style="fill:#737373;fill-opacity:1;stroke:none;stroke-width:0.353385;stroke-linejoin:miter;stroke-dasharray:none;paint-order:stroke fill markers"
         id="rect43598"
         width="3.0052052"
         height="1.3258265"
         x="12.860503"
         y="9.457552" /><rect
         style="fill:#737373;fill-opacity:1;stroke:none;stroke-width:0.353385;stroke-linejoin:miter;stroke-dasharray:none;paint-order:stroke fill markers"
         id="rect43600"
         width="3.0052052"
         height="1.2816297"
         x="12.860503"
         y="12.065009" /></g></g><metadata
     id="metadata69257"><rdf:RDF><cc:Work
         rdf:about=""><cc:license
           rdf:resource="http://scripts.sil.org/OFL" /></cc:Work><cc:License
         rdf:about="http://scripts.sil.org/OFL"><cc:permits
           rdf:resource="http://scripts.sil.org/pub/OFL/Reproduction" /><cc:permits
           rdf:resource="http://scripts.sil.org/pub/OFL/Distribution" /><cc:permits
           rdf:resource="http://scripts.sil.org/pub/OFL/Embedding" /><cc:permits
           rdf:resource="http://scripts.sil.org/pub/OFL/DerivativeWorks" /><cc:requires
           rdf:resource="http://scripts.sil.org/pub/OFL/Notice" /><cc:requires
           rdf:resource="http://scripts.sil.org/pub/OFL/Attribution" /><cc:requires
           rdf:resource="http://scripts.sil.org/pub/OFL/ShareAlike" /><cc:requires
           rdf:resource="http://scripts.sil.org/pub/OFL/DerivativeRenaming" /><cc:requires
           rdf:resource="http://scripts.sil.org/pub/OFL/BundlingWhenSelling" /></cc:License></rdf:RDF></metadata></svg>
