<?xml version="1.0" encoding="UTF-8" standalone="no"?>
<!-- Created with Inkscape (http://www.inkscape.org/) -->

<svg
   width="120"
   height="120"
   viewBox="0 0 120 120"
   version="1.1"
   id="svg5"
   xml:space="preserve"
   xmlns="http://www.w3.org/2000/svg"
   xmlns:svg="http://www.w3.org/2000/svg"
   xmlns:rdf="http://www.w3.org/1999/02/22-rdf-syntax-ns#"
   xmlns:cc="http://creativecommons.org/ns#"><defs
     id="defs2" /><g
     id="layer20"
     style="display:inline;fill:#737373;fill-opacity:1"
     transform="translate(130,-130)"><rect
       style="display:inline;fill:#737373;fill-opacity:1;fill-rule:evenodd;stroke:none;stroke-width:0;stroke-linejoin:round;stroke-dasharray:none;paint-order:stroke fill markers"
       id="rect40564"
       width="10"
       height="100.00001"
       x="-130"
       y="140"
       ry="5.0000005"
       rx="5" /><rect
       style="display:inline;fill:#737373;fill-opacity:1;fill-rule:evenodd;stroke:none;stroke-width:0;stroke-linejoin:round;stroke-dasharray:none;paint-order:stroke fill markers"
       id="use40566"
       width="10"
       height="100.00001"
       x="-19.999996"
       y="140"
       ry="5.0000005"
       rx="5" /><path
       id="path40668"
       style="fill:#737373;fill-opacity:1;stroke-width:0.15103"
       d="m -24.423828,153.51953 c -0.351659,-0.0229 -0.724996,0.003 -1.115234,0.0859 -0.465509,0.0988 -0.903837,0.2582 -1.425782,0.50976 l 1.396485,2.10938 -14.396485,9.53516 c 0.0084,0.53965 -0.0024,1.06526 -0.05469,1.48632 -0.25782,2.07486 -1.027476,4.6188 -1.917969,6.33399 -0.210724,0.40587 -2.287983,1.98675 -9.183594,6.99414 -12.661358,9.19427 -12.295223,8.94146 -14.951172,10.35351 -1.956724,1.04029 -3.364642,1.63057 -7.40039,3.09961 -6.092702,2.21776 -5.895778,2.15235 -6.527344,2.15235 -0.763126,0 -1.099609,-0.23495 -1.099609,-0.76758 0,-0.66144 0.315814,-1.19519 2.015625,-3.38672 7.541064,-9.72256 5.834106,-8.21846 25.621093,-22.57617 8.846565,-6.41914 16.114701,-11.69682 16.150391,-11.72852 0.03566,-0.0317 -15.32421,-0.0395 -34.132812,-0.0176 l -34.197265,0.0391 -0.82617,0.45312 c -0.53503,0.29327 -0.98923,0.69292 -1.28516,1.13281 l -0.45703,0.67969 -0.0391,24.65625 -0.0391,24.6543 h 37.910151 37.908203 l 0.03906,-20.95117 0.03906,-20.95313 4.529297,-3.19922 c 2.491985,-1.75926 4.755578,-3.457 5.029297,-3.77343 0.273685,-0.31643 0.710435,-1.00842 0.970703,-1.53711 1.301072,-2.64281 -0.09893,-5.22415 -2.560547,-5.38477 z m -83.861332,60.93555 v 4.68554 c 0,3.89544 0.0394,4.78134 0.23438,5.24805 0.39364,0.94237 1.24383,1.67493 2.33203,2.00781 0.20821,0.0637 16.213929,0.10385 35.568359,0.0899 l 35.191407,-0.0254 0.617187,-0.33008 c 0.799421,-0.42779 1.512867,-1.24853 1.712891,-1.96875 0.09439,-0.33989 0.160156,-2.41674 0.160156,-5.13867 v -4.56836 h -37.908203 z" /><path
       style="fill:#737373;fill-opacity:1;fill-rule:evenodd;stroke-width:6.244;paint-order:stroke fill markers"
       id="path40741"
       d="m -77.249744,184.69958 c 0.301757,0.32102 0.621435,0.6261 0.90527,0.96308 2.280653,2.70766 4.231488,5.69935 6.225943,8.61783 0,0 3.070967,-1.80785 3.070967,-1.80785 v 0 c -2.317009,-3.26658 -4.574368,-6.57366 -6.843841,-9.87317 0,0 -3.358339,2.10011 -3.358339,2.10011 z" /><path
       style="fill:#737373;fill-opacity:1;fill-rule:evenodd;stroke-width:6.244;paint-order:stroke fill markers"
       id="path40779"
       d="m -28.452912,152.32979 c 1.209219,1.39791 2.3216,2.87119 3.303596,4.4365 0.528881,0.86943 0.272066,0.45007 0.769957,1.25837 0,0 3.356732,-1.95661 3.356732,-1.95661 v 0 c -0.518275,-0.79442 -0.251034,-0.38081 -0.800849,-1.2414 -1.006259,-1.55486 -2.140136,-3.01367 -3.245143,-4.49854 0,0 -3.384293,2.00168 -3.384293,2.00168 z" /></g><metadata
     id="metadata69257"><rdf:RDF><cc:Work
         rdf:about=""><cc:license
           rdf:resource="http://scripts.sil.org/OFL" /></cc:Work><cc:License
         rdf:about="http://scripts.sil.org/OFL"><cc:permits
           rdf:resource="http://scripts.sil.org/pub/OFL/Reproduction" /><cc:permits
           rdf:resource="http://scripts.sil.org/pub/OFL/Distribution" /><cc:permits
           rdf:resource="http://scripts.sil.org/pub/OFL/Embedding" /><cc:permits
           rdf:resource="http://scripts.sil.org/pub/OFL/DerivativeWorks" /><cc:requires
           rdf:resource="http://scripts.sil.org/pub/OFL/Notice" /><cc:requires
           rdf:resource="http://scripts.sil.org/pub/OFL/Attribution" /><cc:requires
           rdf:resource="http://scripts.sil.org/pub/OFL/ShareAlike" /><cc:requires
           rdf:resource="http://scripts.sil.org/pub/OFL/DerivativeRenaming" /><cc:requires
           rdf:resource="http://scripts.sil.org/pub/OFL/BundlingWhenSelling" /></cc:License></rdf:RDF></metadata></svg>
