<?xml version="1.0" encoding="UTF-8" standalone="no"?>
<!-- Created with Inkscape (http://www.inkscape.org/) -->

<svg
   width="120"
   height="120"
   viewBox="0 0 120 120"
   version="1.1"
   id="svg5"
   xml:space="preserve"
   xmlns="http://www.w3.org/2000/svg"
   xmlns:svg="http://www.w3.org/2000/svg"
   xmlns:rdf="http://www.w3.org/1999/02/22-rdf-syntax-ns#"
   xmlns:cc="http://creativecommons.org/ns#"><defs
     id="defs2" /><g
     id="layer2"
     style="display:inline"><path
       id="path1374"
       style="color:#000000;display:inline;fill:#737373;fill-opacity:1;stroke:none;stroke-width:6.244;stroke-dasharray:none;stroke-opacity:1;paint-order:stroke fill markers"
       d="M 36.43961,28.5968 C 31.98376,25.99232 26.30024,27.48266 23.69576,31.938509 L 3.75744,66.049796 C 1.15297,70.505641 2.64331,76.189163 7.09915,78.793639 l 34.11129,19.938324 c 4.45584,2.604477 10.13936,1.114135 12.74384,-3.341711 L 73.8926,61.278965 c 2.60448,-4.455844 1.11414,-10.139366 -3.34171,-12.743843 z m -0.71066,8.075904 a 5.4465907,5.4465907 0 0 1 1.95384,7.451111 5.4465907,5.4465907 0 0 1 -7.45111,1.953841 5.4465907,5.4465907 0 0 1 -1.95384,-7.45111 5.4465907,5.4465907 0 0 1 7.45111,-1.953842 z m 5.84471,22.289202 a 5.4465907,5.4465907 0 0 1 1.95384,7.45111 5.4465907,5.4465907 0 0 1 -7.45111,1.95384 5.4465907,5.4465907 0 0 1 -1.95384,-7.451111 5.4465907,5.4465907 0 0 1 7.45111,-1.953839 z m 5.8447,22.2892 a 5.4465907,5.4465907 0 0 1 1.95384,7.45111 5.4465907,5.4465907 0 0 1 -7.45111,1.953841 5.4465907,5.4465907 0 0 1 -1.95384,-7.45111 5.4465907,5.4465907 0 0 1 7.45111,-1.953841 z M 82.50917,19.98759 c -2.08539,0.0292 -4.1747,0.75879 -5.89654,2.21958 l -18.32378,15.543201 13.83888,8.088683 c 5.90234,3.449969 7.91048,11.113463 4.46051,17.015809 l -12.04308,20.601295 6.42399,7.570373 c 3.33896,3.935626 9.19286,4.415216 13.12849,1.076255 L 114.22669,66.54096 c 3.93562,-3.33896 4.41521,-9.19286 1.07625,-13.128485 L 89.74417,23.28343 c -1.87817,-2.21379 -4.55379,-3.3334 -7.235,-3.29584 z m 0.17379,8.77163 c 1.44068,0.11765 2.77552,0.80316 3.71048,1.905549 1.94583,2.294203 1.66326,5.73146 -0.63111,7.677085 -2.2934,1.946568 -5.73058,1.665369 -7.67709,-0.62807 -1.94583,-2.294204 -1.66325,-5.73146 0.63112,-7.677084 1.10058,-0.9348 2.52733,-1.3943 3.9666,-1.27748 z m -3.76537,45.931402 c 1.4396,0.118435 2.7732,0.80388 3.70744,1.905552 1.94656,2.293393 1.66537,5.730569 -0.62807,7.677084 -2.29339,1.946568 -5.73057,1.665369 -7.67709,-0.62807 -1.94656,-2.293394 -1.66537,-5.73057 0.62807,-7.677083 1.10135,-0.935579 2.52936,-1.395129 3.96965,-1.277483 z" /><g
       id="g1315"
       style="display:none"><path
         style="fill:#1f4445;fill-opacity:1;stroke:none;stroke-width:0.408062"
         d="m 81.722656,74.460938 a 7.2613616,7.2613616 0 0 0 -7.261718,7.261718 7.2613616,7.2613616 0 0 0 7.261718,7.261719 7.2613616,7.2613616 0 0 0 7.261719,-7.261719 7.2613616,7.2613616 0 0 0 -7.261719,-7.261718 z"
         id="path1308" /><path
         style="fill:#1f4445;fill-opacity:1;stroke:none;stroke-width:0.408062"
         d="m 38.277344,74.460938 a 7.2613616,7.2613616 0 0 0 -7.261719,7.261718 7.2613616,7.2613616 0 0 0 7.261719,7.261719 7.2613616,7.2613616 0 0 0 7.261718,-7.261719 7.2613616,7.2613616 0 0 0 -7.261718,-7.261718 z"
         id="path1306" /><path
         style="display:inline;fill:#1f4445;fill-opacity:1;stroke:none;stroke-width:0.408062"
         d="M 60,52.738281 A 7.2613616,7.2613616 0 0 0 52.738281,60 7.2613616,7.2613616 0 0 0 60,67.261719 7.2613616,7.2613616 0 0 0 67.261719,60 7.2613616,7.2613616 0 0 0 60,52.738281 Z"
         id="path1304" /><path
         style="fill:#1f4445;fill-opacity:1;stroke:none;stroke-width:0.408062"
         d="m 81.722656,31.015625 a 7.2613616,7.2613616 0 0 0 -7.261718,7.261719 7.2613616,7.2613616 0 0 0 7.261718,7.261718 7.2613616,7.2613616 0 0 0 7.261719,-7.261718 7.2613616,7.2613616 0 0 0 -7.261719,-7.261719 z"
         id="path1302" /><path
         style="fill:#1f4445;fill-opacity:1;stroke:none;stroke-width:0.408062"
         d="m 38.277344,31.015625 a 7.2613616,7.2613616 0 0 0 -7.261719,7.261719 7.2613616,7.2613616 0 0 0 7.261719,7.261718 7.2613616,7.2613616 0 0 0 7.261718,-7.261718 7.2613616,7.2613616 0 0 0 -7.261718,-7.261719 z"
         id="path1134" /><path
         id="rect1132"
         style="display:none;fill:#451f1f;stroke-width:0.513261"
         d="m 33.662057,21.241716 h 52.675882 c 6.880869,0 12.420341,5.539472 12.420341,12.420341 v 52.675882 c 0,6.880869 -5.539472,12.420341 -12.420341,12.420341 H 33.662057 c -6.880869,0 -12.420341,-5.539472 -12.420341,-12.420341 V 33.662057 c 0,-6.880869 5.539472,-12.420341 12.420341,-12.420341 z" /></g></g><metadata
     id="metadata69257"><rdf:RDF><cc:Work
         rdf:about=""><cc:license
           rdf:resource="http://scripts.sil.org/OFL" /></cc:Work><cc:License
         rdf:about="http://scripts.sil.org/OFL"><cc:permits
           rdf:resource="http://scripts.sil.org/pub/OFL/Reproduction" /><cc:permits
           rdf:resource="http://scripts.sil.org/pub/OFL/Distribution" /><cc:permits
           rdf:resource="http://scripts.sil.org/pub/OFL/Embedding" /><cc:permits
           rdf:resource="http://scripts.sil.org/pub/OFL/DerivativeWorks" /><cc:requires
           rdf:resource="http://scripts.sil.org/pub/OFL/Notice" /><cc:requires
           rdf:resource="http://scripts.sil.org/pub/OFL/Attribution" /><cc:requires
           rdf:resource="http://scripts.sil.org/pub/OFL/ShareAlike" /><cc:requires
           rdf:resource="http://scripts.sil.org/pub/OFL/DerivativeRenaming" /><cc:requires
           rdf:resource="http://scripts.sil.org/pub/OFL/BundlingWhenSelling" /></cc:License></rdf:RDF></metadata></svg>
