<?xml version="1.0" encoding="UTF-8" standalone="no"?>
<!-- Created with Inkscape (http://www.inkscape.org/) -->

<svg
   width="120"
   height="120"
   viewBox="0 0 120 120"
   version="1.1"
   id="svg5"
   xml:space="preserve"
   xmlns="http://www.w3.org/2000/svg"
   xmlns:svg="http://www.w3.org/2000/svg"
   xmlns:rdf="http://www.w3.org/1999/02/22-rdf-syntax-ns#"
   xmlns:cc="http://creativecommons.org/ns#"><defs
     id="defs2" /><g
     id="layer12"
     transform="translate(-260,-130)"><path
       id="path1374-8"
       style="color:#000000;display:inline;fill:#737373;fill-opacity:1;stroke:none;stroke-width:6.244;stroke-dasharray:none;stroke-opacity:1;paint-order:stroke fill markers"
       d="m 82.509656,149.98772 c -2.085389,0.0292 -4.174651,0.75796 -5.896485,2.21875 l -18.324219,15.54297 13.837891,8.08984 c 5.90234,3.44997 7.910902,11.11329 4.460938,17.01563 l -12.042969,20.60156 6.423828,7.57031 c 3.338957,3.93563 9.193284,4.41513 13.128906,1.07618 l 30.128904,-25.5625 c 3.93562,-3.33896 4.41513,-9.19329 1.07617,-13.12891 L 89.744031,153.28264 c -1.878164,-2.21379 -4.553164,-3.33247 -7.234375,-3.29492 z m -50.476563,7.33203 c -3.30176,-0.1069 -6.547316,1.55575 -8.337891,4.61914 L 3.7577027,196.04827 c -2.604474,4.45584 -1.114043,10.13966 3.341796,12.74414 l 34.1113293,19.93945 c 4.455838,2.60448 10.139668,1.11405 12.74414,-3.3418 l 19.9375,-34.11132 C 76.496942,186.8229 75.00651,181.13907 70.550671,178.5346 L 36.439343,158.5971 c -1.392449,-0.8139 -2.90545,-1.22875 -4.40625,-1.27735 z m 50.650391,1.43946 c 1.440685,0.11765 2.774015,0.80191 3.708984,1.90429 1.945825,2.2942 1.663514,5.73211 -0.630859,7.67774 -2.29339,1.94656 -5.72927,1.66453 -7.675781,-0.62891 -1.945826,-2.2942 -1.663512,-5.73016 0.630859,-7.67578 1.100579,-0.9348 2.527531,-1.39416 3.966797,-1.27734 z m 20.560546,24.83203 c 1.56942,-0.0211 3.1341,0.63324 4.22852,1.92382 0.9348,1.10058 1.39416,2.52558 1.27734,3.96485 -0.11765,1.44068 -0.80191,2.77598 -1.9043,3.71094 -2.29419,1.94582 -5.7321,1.6635 -7.677731,-0.63086 -1.946558,-2.2934 -1.664532,-5.73123 0.628906,-7.67774 1.003715,-0.8513 2.226605,-1.27464 3.447265,-1.29101 z m -64.769531,4.63672 c 1.046901,-0.0684 2.125705,0.1631 3.09961,0.73242 2.59723,1.51793 3.471311,4.85409 1.953125,7.45117 -1.517932,2.59723 -4.854091,3.47326 -7.451172,1.95508 -2.597231,-1.51793 -3.471313,-4.85409 -1.953125,-7.45117 0.948707,-1.62327 2.606727,-2.5736 4.351562,-2.6875 z m 40.44336,16.46289 c 1.439601,0.11843 2.772792,0.80262 3.707031,1.90429 1.946565,2.29339 1.66453,5.73122 -0.628906,7.67774 -2.29339,1.94656 -5.72927,1.66453 -7.675782,-0.62891 -1.946566,-2.29339 -1.666483,-5.72927 0.626954,-7.67578 1.101348,-0.93558 2.530414,-1.39499 3.970703,-1.27734 z"
       transform="translate(260)" /></g><metadata
     id="metadata69257"><rdf:RDF><cc:Work
         rdf:about=""><cc:license
           rdf:resource="http://scripts.sil.org/OFL" /></cc:Work><cc:License
         rdf:about="http://scripts.sil.org/OFL"><cc:permits
           rdf:resource="http://scripts.sil.org/pub/OFL/Reproduction" /><cc:permits
           rdf:resource="http://scripts.sil.org/pub/OFL/Distribution" /><cc:permits
           rdf:resource="http://scripts.sil.org/pub/OFL/Embedding" /><cc:permits
           rdf:resource="http://scripts.sil.org/pub/OFL/DerivativeWorks" /><cc:requires
           rdf:resource="http://scripts.sil.org/pub/OFL/Notice" /><cc:requires
           rdf:resource="http://scripts.sil.org/pub/OFL/Attribution" /><cc:requires
           rdf:resource="http://scripts.sil.org/pub/OFL/ShareAlike" /><cc:requires
           rdf:resource="http://scripts.sil.org/pub/OFL/DerivativeRenaming" /><cc:requires
           rdf:resource="http://scripts.sil.org/pub/OFL/BundlingWhenSelling" /></cc:License></rdf:RDF></metadata></svg>
