<?xml version="1.0" encoding="UTF-8" standalone="no"?>
<!-- Created with Inkscape (http://www.inkscape.org/) -->

<svg
   width="120"
   height="120"
   viewBox="0 0 120 120"
   version="1.1"
   id="svg5"
   xml:space="preserve"
   xmlns="http://www.w3.org/2000/svg"
   xmlns:svg="http://www.w3.org/2000/svg"
   xmlns:rdf="http://www.w3.org/1999/02/22-rdf-syntax-ns#"
   xmlns:cc="http://creativecommons.org/ns#"><defs
     id="defs2" /><g
     id="layer1"
     transform="translate(-130)"><path
       id="path17671"
       style="display:inline;fill:#737373;fill-opacity:1;stroke-width:9.23495;paint-order:stroke fill markers"
       d="m 190.60367,5.8152519 5.90679,29.1122681 a 23.761332,23.761332 45.000008 0 0 18.562,18.562007 l 29.11228,5.906804 a 0.61596793,0.61596793 90.000002 0 1 0,1.207335 l -29.11228,5.906803 a 23.761341,23.761341 135.00001 0 0 -18.56201,18.562005 l -5.9068,29.112266 a 0.61596775,0.61596775 1.1580801e-5 0 1 -1.20734,0 l -5.90679,-29.112265 a 23.761332,23.761332 45.000008 0 0 -18.562,-18.562007 l -29.11228,-5.906804 a 0.61596793,0.61596793 90.000002 0 1 0,-1.207335 l 29.11228,-5.906803 a 23.761341,23.761341 135 0 0 18.56201,-18.562005 l 5.9068,-29.1122693 a 0.61596774,0.61596774 1.1580801e-5 0 1 1.20734,2e-7 z" /><path
       style="display:inline;fill:#737373;fill-opacity:1;stroke-width:6.244;paint-order:stroke fill markers"
       id="path17673"
       d="m 221.41789,24.511205 2.6539,10.601366 a 3.3357195,3.3357195 45.000001 0 0 2.42581,2.425815 l 10.60137,2.653898 a 0.50067082,0.50067082 90.000001 0 1 0,0.971367 l -10.60137,2.653897 a 3.3357195,3.3357195 135 0 0 -2.42581,2.425816 l -2.6539,10.601365 a 0.50067082,0.50067082 1.4684271e-6 0 1 -0.97137,0 l -2.6539,-10.601366 a 3.3357195,3.3357195 45.000001 0 0 -2.42581,-2.425815 L 204.76544,41.16365 a 0.50067082,0.50067082 90.000001 0 1 0,-0.971367 l 10.60137,-2.653897 a 3.3357195,3.3357195 135 0 0 2.42581,-2.425815 l 2.6539,-10.601366 a 0.50067082,0.50067082 1.4684267e-6 0 1 0.97137,0 z"
       transform="matrix(1.1429079,0,0,1.1429079,-22.674646,-15.982694)" /><path
       style="display:inline;fill:#737373;fill-opacity:1;stroke-width:6.244;paint-order:stroke fill markers"
       id="path17675"
       d="m 221.57987,27.272737 2.60546,7.612211 a 4.0815641,4.0815641 45.000002 0 0 2.53989,2.539892 l 7.61221,2.605465 a 0.68454894,0.68454894 90.000002 0 1 0,1.295324 l -7.61221,2.605466 a 4.0815641,4.0815641 135 0 0 -2.53989,2.539891 l -2.60546,7.612211 a 0.68454894,0.68454894 1.5744611e-6 0 1 -1.29533,0 l -2.60546,-7.612211 a 4.0815641,4.0815641 45.000002 0 0 -2.53989,-2.539892 l -7.61221,-2.605465 a 0.68454894,0.68454894 90.000002 0 1 0,-1.295324 l 7.61221,-2.605465 a 4.0815641,4.0815641 135 0 0 2.53989,-2.539892 l 2.60546,-7.612211 a 0.68454894,0.68454894 1.5744611e-6 0 1 1.29533,0 z"
       transform="matrix(0.56744107,0,0,0.56744107,27.389273,70.683621)" /></g><metadata
     id="metadata69257"><rdf:RDF><cc:Work
         rdf:about=""><cc:license
           rdf:resource="http://scripts.sil.org/OFL" /></cc:Work><cc:License
         rdf:about="http://scripts.sil.org/OFL"><cc:permits
           rdf:resource="http://scripts.sil.org/pub/OFL/Reproduction" /><cc:permits
           rdf:resource="http://scripts.sil.org/pub/OFL/Distribution" /><cc:permits
           rdf:resource="http://scripts.sil.org/pub/OFL/Embedding" /><cc:permits
           rdf:resource="http://scripts.sil.org/pub/OFL/DerivativeWorks" /><cc:requires
           rdf:resource="http://scripts.sil.org/pub/OFL/Notice" /><cc:requires
           rdf:resource="http://scripts.sil.org/pub/OFL/Attribution" /><cc:requires
           rdf:resource="http://scripts.sil.org/pub/OFL/ShareAlike" /><cc:requires
           rdf:resource="http://scripts.sil.org/pub/OFL/DerivativeRenaming" /><cc:requires
           rdf:resource="http://scripts.sil.org/pub/OFL/BundlingWhenSelling" /></cc:License></rdf:RDF></metadata></svg>
