<?xml version="1.0" encoding="UTF-8" standalone="no"?>
<!-- Created with Inkscape (http://www.inkscape.org/) -->

<svg
   width="120"
   height="120"
   viewBox="0 0 120 120"
   version="1.1"
   id="svg5"
   xml:space="preserve"
   xmlns="http://www.w3.org/2000/svg"
   xmlns:svg="http://www.w3.org/2000/svg"
   xmlns:rdf="http://www.w3.org/1999/02/22-rdf-syntax-ns#"
   xmlns:cc="http://creativecommons.org/ns#"><defs
     id="defs2" /><g
     id="layer18"
     style="display:inline"
     transform="translate(-390,-390)"><g
       id="g43794"
       transform="translate(520,-139.36377)"
       style="fill:#737373;fill-opacity:1"><circle
         style="display:inline;fill:#737373;fill-opacity:1;fill-rule:evenodd;stroke:none;stroke-width:0;stroke-linejoin:round;stroke-dasharray:none;paint-order:stroke fill markers"
         id="path28355-9"
         cx="-70.997978"
         cy="581.13348"
         r="22.838966" /><path
         id="path28361-0"
         style="display:inline;fill:#737373;fill-opacity:1;fill-rule:evenodd;stroke:none;stroke-width:0;stroke-linejoin:round;stroke-dasharray:none;paint-order:stroke fill markers"
         d="m -70.997976,605.44754 c -3.598506,0 -7.00326,0.79599 -10.055201,2.21369 a 3.1908613,3.1908613 0 0 1 0.404616,1.473 v 8.2244 h 8.224398 a 3.1908613,3.1908613 0 0 1 3.190111,3.19011 v 11.41284 a 3.1908613,3.1908613 0 0 1 -3.190111,3.1901 h -8.224398 v 4.9741 h 33.449342 V 629.2463 c 0,-13.18484 -10.613917,-23.79876 -23.798757,-23.79876 z" /><path
         style="display:inline;fill:#737373;fill-opacity:1;stroke-width:6.244;paint-order:stroke fill markers"
         id="path17673-3"
         d="m 221.41789,24.511205 2.6539,10.601366 a 3.3357195,3.3357195 45.000001 0 0 2.42581,2.425815 l 10.60137,2.653898 a 0.50067082,0.50067082 90.000001 0 1 0,0.971367 l -10.60137,2.653897 a 3.3357195,3.3357195 135 0 0 -2.42581,2.425816 l -2.6539,10.601365 a 0.50067082,0.50067082 1.4684271e-6 0 1 -0.97137,0 l -2.6539,-10.601366 a 3.3357195,3.3357195 45.000001 0 0 -2.42581,-2.425815 L 204.76544,41.16365 a 0.50067082,0.50067082 90.000001 0 1 0,-0.971367 l 10.60137,-2.653897 a 3.3357195,3.3357195 135 0 0 2.42581,-2.425815 l 2.6539,-10.601366 a 0.50067082,0.50067082 1.4684267e-6 0 1 0.97137,0 z"
         transform="matrix(1.1429079,0,0,1.1429079,-361.50517,508.3726)" /><path
         style="display:inline;fill:#737373;fill-opacity:1;stroke-width:6.244;paint-order:stroke fill markers"
         id="path51688"
         d="m 221.41789,24.511205 2.6539,10.601366 a 3.3357195,3.3357195 45.000001 0 0 2.42581,2.425815 l 10.60137,2.653898 a 0.50067082,0.50067082 90.000001 0 1 0,0.971367 l -10.60137,2.653897 a 3.3357195,3.3357195 135 0 0 -2.42581,2.425816 l -2.6539,10.601365 a 0.50067082,0.50067082 1.4684271e-6 0 1 -0.97137,0 l -2.6539,-10.601366 a 3.3357195,3.3357195 45.000001 0 0 -2.42581,-2.425815 L 204.76544,41.16365 a 0.50067082,0.50067082 90.000001 0 1 0,-0.971367 l 10.60137,-2.653897 a 3.3357195,3.3357195 135 0 0 2.42581,-2.425815 l 2.6539,-10.601366 a 0.50067082,0.50067082 1.4684267e-6 0 1 0.97137,0 z"
         transform="matrix(0.88604589,0,0,0.88604589,-224.50608,569.07123)" /></g><g
       id="g43812"
       transform="matrix(0.85604634,0,0,0.85604634,513.2055,16.0659)"
       style="fill:#737373;fill-opacity:1"><path
         id="rect43800"
         style="fill:#737373;fill-opacity:1;fill-rule:evenodd;stroke-width:2.08133;paint-order:stroke fill markers"
         d="m -103.33398,530 v 13.33398 h -13.33204 v 13.33204 h 13.33204 V 570 H -90 v -13.33398 h 13.333984 V 543.33398 H -90 V 530 Z" /></g></g><metadata
     id="metadata69257"><rdf:RDF><cc:Work
         rdf:about=""><cc:license
           rdf:resource="http://scripts.sil.org/OFL" /></cc:Work><cc:License
         rdf:about="http://scripts.sil.org/OFL"><cc:permits
           rdf:resource="http://scripts.sil.org/pub/OFL/Reproduction" /><cc:permits
           rdf:resource="http://scripts.sil.org/pub/OFL/Distribution" /><cc:permits
           rdf:resource="http://scripts.sil.org/pub/OFL/Embedding" /><cc:permits
           rdf:resource="http://scripts.sil.org/pub/OFL/DerivativeWorks" /><cc:requires
           rdf:resource="http://scripts.sil.org/pub/OFL/Notice" /><cc:requires
           rdf:resource="http://scripts.sil.org/pub/OFL/Attribution" /><cc:requires
           rdf:resource="http://scripts.sil.org/pub/OFL/ShareAlike" /><cc:requires
           rdf:resource="http://scripts.sil.org/pub/OFL/DerivativeRenaming" /><cc:requires
           rdf:resource="http://scripts.sil.org/pub/OFL/BundlingWhenSelling" /></cc:License></rdf:RDF></metadata></svg>
