<?xml version="1.0" encoding="UTF-8" standalone="no"?>
<!-- Created with Inkscape (http://www.inkscape.org/) -->

<svg
   width="120"
   height="120"
   viewBox="0 0 120 120"
   version="1.1"
   id="svg5"
   xml:space="preserve"
   xmlns="http://www.w3.org/2000/svg"
   xmlns:svg="http://www.w3.org/2000/svg"
   xmlns:rdf="http://www.w3.org/1999/02/22-rdf-syntax-ns#"
   xmlns:cc="http://creativecommons.org/ns#"><defs
     id="defs2" /><g
     id="layer4"
     style="display:inline"
     transform="translate(-261.88098,-0.14756909)"><path
       id="path18053"
       style="fill:#737373;fill-opacity:1;fill-rule:evenodd;stroke-width:7.29497;paint-order:stroke fill markers"
       d="m 351.88098,72.442237 a 29.5,29.5 0 0 1 -41.65687,-2.281409 29.5,29.5 0 0 1 2.28141,-41.656875 29.5,29.5 0 0 1 41.65687,2.28141 29.5,29.5 0 0 1 -2.28141,41.656874 z m 6.2567,6.981719 a 38.875,38.875 0 0 1 -54.89529,-3.006434 38.875,38.875 0 0 1 3.00643,-54.895287 38.875,38.875 0 0 1 54.89529,3.006433 38.875,38.875 0 0 1 -3.00643,54.895288 z" /><rect
       style="fill:#737373;fill-opacity:1;stroke-width:6.244;paint-order:stroke fill markers"
       id="rect18159"
       width="9.375"
       height="54.206142"
       x="254.60002"
       y="-184.20508"
       ry="2.75"
       transform="rotate(48.134769)"
       rx="2.75" /></g><metadata
     id="metadata69257"><rdf:RDF><cc:Work
         rdf:about=""><cc:license
           rdf:resource="http://scripts.sil.org/OFL" /></cc:Work><cc:License
         rdf:about="http://scripts.sil.org/OFL"><cc:permits
           rdf:resource="http://scripts.sil.org/pub/OFL/Reproduction" /><cc:permits
           rdf:resource="http://scripts.sil.org/pub/OFL/Distribution" /><cc:permits
           rdf:resource="http://scripts.sil.org/pub/OFL/Embedding" /><cc:permits
           rdf:resource="http://scripts.sil.org/pub/OFL/DerivativeWorks" /><cc:requires
           rdf:resource="http://scripts.sil.org/pub/OFL/Notice" /><cc:requires
           rdf:resource="http://scripts.sil.org/pub/OFL/Attribution" /><cc:requires
           rdf:resource="http://scripts.sil.org/pub/OFL/ShareAlike" /><cc:requires
           rdf:resource="http://scripts.sil.org/pub/OFL/DerivativeRenaming" /><cc:requires
           rdf:resource="http://scripts.sil.org/pub/OFL/BundlingWhenSelling" /></cc:License></rdf:RDF></metadata></svg>
