<?xml version="1.0" encoding="utf-8"?>
<!DOCTYPE svg PUBLIC "-//W3C//DTD SVG 20010904//EN" "http://www.w3.org/TR/2001/REC-SVG-20010904/DTD/svg10.dtd">
<svg version="1.0" xmlns="http://www.w3.org/2000/svg" width="600px" height="579px" viewBox="0 0 600 579" preserveAspectRatio="xMidYMid meet">
 <g fill="#000000">
  <path d="M242.1 526.4 c-71.7 -117.3 -104.4 -170.5 -105.1 -170.9 -0.3 -0.2 -5.5 9.5 -11.5 21.6 -6 12 -11.3 21.9 -11.7 21.9 -0.3 0 -3 -0.5 -5.8 -1.2 l-5.3 -1.2 0.8 -25.3 c0.4 -13.9 0.4 -25.3 0.1 -25.3 -0.4 0 -9.7 7.2 -20.8 15.9 l-20.2 15.9 -4.3 -3.5 c-2.4 -1.9 -4.3 -4 -4.3 -4.5 0 -0.5 5 -10.4 11.1 -21.9 6.1 -11.6 10.8 -21.3 10.5 -21.6 -0.4 -0.4 -46 10.8 -50 12.3 -0.6 0.2 -2.3 -1.9 -3.9 -5 l-2.7 -5.5 20.2 -15.3 c16.2 -12.3 19.7 -15.3 18.2 -15.9 -1.1 -0.4 -12.7 -2.2 -25.9 -4 -13.2 -1.7 -24.3 -3.4 -24.7 -3.8 -0.3 -0.3 -0.9 -3.1 -1.3 -6.1 l-0.7 -5.5 24.9 -5.9 c13.6 -3.3 25.1 -6.2 25.6 -6.6 0.4 -0.3 -9.2 -6.4 -21.3 -13.4 -12.1 -7.1 -22.3 -13.2 -22.6 -13.7 -0.3 -0.5 0.2 -3.2 1.1 -5.9 1.2 -3.5 2.2 -5 3.5 -5 0.9 0 12.9 1.8 26.6 4 13.6 2.1 24.9 3.8 25 3.7 0.2 -0.1 -6.7 -9.5 -15.1 -20.9 l-15.4 -20.7 4 -4.5 4 -4.5 16.2 9.9 c8.9 5.4 16.3 9.7 16.5 9.6 0.2 -0.2 -16 -44.2 -35.9 -97.7 -43.5 -117.3 -39.1 -105.1 -37.6 -104.3 0.7 0.4 12 8 25.2 16.9 71.7 48.3 151 100.8 153.3 101.4 1.5 0.5 4.3 1.9 6.3 3.2 4.4 2.9 9.2 5.8 13.2 8.1 2.7 1.5 3.3 1.6 6.6 0.2 1.9 -0.8 3.8 -1.8 4.1 -2.3 0.9 -1.4 7 -4.2 8 -3.6 1.4 0.8 27 -9.8 27 -11.3 0 -0.6 -5.8 -12.9 -13 -27.2 -7.1 -14.3 -13 -26.2 -13 -26.4 0 -0.3 2.1 -2.1 4.6 -4 l4.6 -3.6 5 4.5 c2.7 2.4 11.4 10.4 19.4 17.6 8 7.2 14.7 12.9 15 12.7 0.2 -0.3 -0.2 -10.6 -1.1 -22.9 -2.1 -31.4 -2.5 -28.4 3.8 -30.1 2.8 -0.9 5.5 -1.3 5.9 -0.9 0.3 0.3 5.7 11.3 11.9 24.4 10.3 21.8 11.4 23.6 12.4 21.5 0.7 -1.3 4.7 -12.1 9 -24 7.1 -19.9 7.9 -21.7 9.9 -21.3 1.1 0.2 3.7 0.6 5.7 1 l3.6 0.5 0.7 8.8 c0.3 4.8 0.8 15.5 1.1 23.7 0.3 8.3 0.8 16.5 1.1 18.4 l0.6 3.4 17.8 -17.8 17.8 -17.8 4.6 2.9 c2.5 1.6 4.6 3.4 4.6 4 0 0.6 -4.3 12.3 -9.5 25.9 -5.2 13.6 -9.5 25.3 -9.5 25.9 0 1.2 47.1 20.6 49.8 20.6 0.7 0 36.4 -30 79.3 -66.7 l78 -66.8 5 -0.3 c3.2 -0.2 4.9 0.1 4.9 0.9 0 1.1 -41.9 152 -51.6 186.1 -2.9 10 -4.4 17.2 -4.2 19.8 l0.3 4 15.5 -9.5 c8.5 -5.2 16 -9.5 16.7 -9.5 1.1 0 7.3 6.8 7.3 8.1 0 0.4 -6.8 9.8 -15.1 20.9 -8.2 11.1 -14.9 20.3 -14.7 20.5 0.2 0.1 12.2 -1.7 26.8 -4 l26.5 -4.1 2.1 5.5 c1.2 3.1 2.1 5.6 2 5.7 0 0.1 -10.4 6.1 -22.9 13.4 -12.5 7.3 -22.6 13.5 -22.3 13.7 0.2 0.3 11.6 3.1 25.2 6.4 13.6 3.3 25 6.1 25.2 6.3 0.2 0.3 0.1 2.9 -0.3 5.9 -0.6 4.5 -1.1 5.6 -2.9 6 -1.1 0.3 -12.7 2 -25.6 3.8 -12.9 1.7 -23.8 3.5 -24.2 3.8 -0.4 0.4 7.8 7.1 18.2 15 10.5 7.9 19.4 14.9 19.9 15.5 0.6 0.7 -0.1 3 -1.7 6.2 l-2.7 5.1 -25.5 -6.7 c-14 -3.7 -25.6 -6.4 -25.8 -6 -0.1 0.4 4.7 10.2 10.8 21.7 6 11.6 11 21.5 11 22 0 1 -7.4 7.3 -8.6 7.3 -0.6 0 -3.1 -1.9 -27.7 -21.3 l-13.8 -10.9 0.3 25.8 0.3 25.7 -2.5 0.7 c-8.7 2.3 -7.1 3.9 -16.5 -15 -4.7 -9.3 -8.8 -17 -9.3 -17 -0.4 0 -3.6 5.3 -7.1 11.8 -3.5 6.4 -13 23.6 -21.1 38.2 -8.1 14.6 -16.9 30.6 -19.5 35.5 -2.7 5 -7.6 14 -11 20 -12.9 22.9 -48.3 87.5 -52.7 96.3 l-2.2 4.2 -16.1 0 c-8.9 0 -27 0.3 -40.1 0.7 l-24 0.6 -32.3 -52.9z m37.4 10.6 c21.9 -6.6 52.3 -6.6 71 -0.1 l6 2.1 1.6 -2.1 c1.7 -2.3 4.7 -7.7 45.8 -82.9 10.1 -18.4 28 -51.2 39.8 -72.7 l21.5 -39.3 3.4 0 c3.2 0 3.6 0.4 7.3 7.8 l4 7.7 0.1 -17.2 0 -17.3 3.1 0 c2.7 0 10.9 5.7 24.3 16.9 1.1 0.9 -0.6 -3.4 -4.2 -10.3 -7.3 -14 -8.2 -19.6 -3.4 -19.6 1.5 0 8.5 1.6 15.7 3.5 7.1 1.9 13.1 3.3 13.2 3.1 0.2 -0.2 -4.6 -4.1 -10.7 -8.7 -10.4 -7.9 -11 -8.6 -11 -12 l0 -3.5 13.5 -1.9 c22.1 -2.9 21.9 -2.6 3.7 -6.9 l-16.2 -3.8 0 -3.3 c0 -3.2 0.5 -3.6 12.5 -10.6 6.9 -4.1 12.1 -7.5 11.6 -7.7 -0.6 -0.2 -6.8 0.6 -13.9 1.7 -18 2.9 -17.5 3 -17 -2 l0.4 -4.1 -4.1 0.6 c-2.2 0.4 -11.1 2.1 -19.8 4 -16.9 3.5 -16.9 3.5 -22.1 11.6 -1.6 2.5 -4.1 6.2 -5.5 8.3 -1.4 2.1 -3.1 4.5 -3.6 5.5 -0.6 0.9 -7.7 11.8 -15.9 24.1 l-14.9 22.3 -7.6 -0.5 c-9.3 -0.6 -61.1 -6.5 -66.5 -7.5 -3.7 -0.7 -3.9 -1 -6.6 -8.2 -4.6 -12.7 -14.7 -40 -18 -49 -1.8 -4.7 -3.9 -10.5 -4.7 -13 -0.9 -2.5 -2.2 -5.3 -3.1 -6.2 -0.8 -1 -11.2 -8.3 -23.1 -16.3 -11.9 -8.1 -28.3 -19.3 -36.6 -25 -8.2 -5.8 -16 -10.9 -17.2 -11.4 -1.1 -0.5 -2.4 -1.5 -2.8 -2.1 -0.4 -0.6 -1.7 -1.5 -2.8 -2.1 -1.2 -0.5 -4.2 -2.5 -6.7 -4.4 -2.5 -1.9 -5.4 -3.9 -6.5 -4.4 -1.2 -0.5 -2.7 -1.6 -3.4 -2.5 -0.7 -0.9 -1.7 -1.6 -2.2 -1.6 -0.7 0 -6.1 -3.6 -25 -16.8 l-5.5 -3.9 -1.3 -8.4 c-0.6 -4.6 -1.4 -9.2 -1.7 -10.2 -0.4 -1.3 -93.7 -64.6 -135.6 -92.1 l-2.8 -1.8 3.4 9.3 c1.9 5.2 5.9 16.4 9.1 24.9 3.1 8.5 6.9 18.9 8.5 23 16.1 41.6 48 129.8 48 132.5 0 3.2 -0.2 3.5 -3.1 3.5 -2 0 -6 -1.7 -10.6 -4.5 -4 -2.5 -7.6 -4.5 -7.9 -4.5 -0.2 0 3.2 4.8 7.6 10.7 6.3 8.3 8 11.3 8 14 0 4.1 -0.4 4.1 -18.3 1.2 -7.1 -1.1 -13.1 -1.9 -13.3 -1.6 -0.3 0.3 5.1 3.7 12 7.7 12.2 7 12.6 7.4 12.6 10.6 0 3.8 1.8 3 -19.2 8 -6.5 1.5 -11.5 3 -11.2 3.3 0.3 0.3 7.3 1.5 15.7 2.6 l15.2 2.1 0.3 3.6 c0.3 3.5 0 3.8 -10.7 11.9 -6 4.6 -10.8 8.5 -10.6 8.7 0.2 0.2 5.5 -1 11.9 -2.7 6.3 -1.7 13.3 -3.1 15.5 -3.1 4 0 4.1 0.1 4.1 3.5 0 2.4 -2 7.3 -6.2 15.3 -3.4 6.4 -5.5 11.2 -4.7 10.6 0.7 -0.6 5.7 -4.5 11 -8.7 8 -6.4 10.2 -7.7 13.3 -7.7 l3.6 0 0.1 16.8 0 16.7 6.2 -12.2 c9.7 -19.4 6 -22.7 43.7 39 17.2 28.1 36.7 60 43.3 70.7 6.5 10.7 21.9 35.8 34.1 55.8 15.9 26.1 22.5 36.1 23.6 35.8 0.8 -0.3 4.7 -1.5 8.5 -2.6z m249.8 -311.6 c2.7 -3.6 4.7 -6.8 4.4 -7 -0.3 -0.3 -3.1 1.2 -6.4 3.3 -5.8 3.7 -5.9 3.9 -5.1 7.1 0.5 1.7 1.2 3.2 1.6 3.2 0.4 -0.1 2.9 -3 5.5 -6.6z m-118.8 -14.9 c10.5 -1.4 26.8 -3.5 36.3 -4.7 9.4 -1.2 17.2 -2.5 17.2 -2.8 0 -0.3 -7.4 -9.1 -16.5 -19.5 -15.9 -18.3 -16.5 -19.1 -16.3 -23 0.3 -3.9 1.3 -4.8 47.3 -46.2 41.3 -37.1 47.4 -42.2 50.3 -42.3 2.9 0 3.2 0.3 3.2 3.1 0 2.5 -3.4 8 -14.7 24.2 -8.2 11.6 -20.9 29.2 -28.4 39.1 l-13.6 18.1 2.3 3 c3.5 4.7 5.5 13.7 6.1 28.3 l0.6 13.3 2.6 -0.5 c1.4 -0.3 6.4 -1 11.1 -1.7 4.7 -0.6 8.6 -1.2 8.7 -1.3 0.5 -0.4 44.3 -158.4 44.3 -159.5 0 -0.6 -30.2 24.8 -67.2 56.4 -54.6 46.8 -67.7 57.5 -70 57.5 -1.5 0 -18.4 -6.2 -37.4 -13.7 l-34.6 -13.7 0.4 -5 c0.2 -2.8 1.6 -8.2 3.1 -12.1 l2.8 -7 -10.3 10.3 c-8.7 8.6 -10.8 10.2 -13.5 10.2 -3.9 0 -4.3 -1 -4.4 -12.3 -0.1 -5.1 -0.4 -12.1 -0.8 -15.7 l-0.6 -6.5 -5.5 15.3 -5.5 15.2 -3.3 0 c-3.3 0 -3.4 -0.1 -10.2 -14.2 l-6.9 -14.3 0.6 16.3 0.6 16.2 -3.5 0 c-3 0 -4.8 -1.1 -10.9 -6.7 -4.1 -3.7 -8.7 -7.8 -10.3 -9.2 l-2.8 -2.6 3.6 7.2 c2.3 4.6 3.6 8.7 3.6 11.1 l0 3.9 -11.5 4.8 c-6.3 2.6 -11.5 4.9 -11.5 5.1 0 0.2 1.7 1.1 3.8 2.1 2 0.9 6.6 3.4 10.2 5.3 3.6 2 11.9 6.5 18.5 10 6.6 3.4 12.5 6.6 13 7 0.6 0.4 6.4 3.5 13 7 14 7.4 23 12.2 30 16 6.7 3.7 13.7 7.5 28 15.1 6.6 3.5 15.8 8.5 20.5 11 4.7 2.6 8.7 4.7 9 4.8 0.3 0 9.1 -1 19.5 -2.4z"/>
  <path d="M126.2 195.8 c0.4 -20.3 0.8 -24.1 2.6 -29.8 l2.1 -6.5 -6.7 -5.9 c-13.7 -12.1 -36 -35.9 -58 -62 -7.6 -9 -9.2 -11.5 -9.2 -14.3 0 -7.4 1.9 -6.2 63.7 38.7 l57.8 42.1 0 3.9 c0 3.7 -1.4 5.6 -23 30.5 -21.6 24.9 -23.2 26.5 -26.3 26.5 l-3.4 0 0.4 -23.2z"/>
 </g>
 <g fill="#e6702f">
  <path d="M266.6 542.8 c-1.3 -2.1 -26.9 -43.8 -57.3 -93.3 -6 -9.9 -25.1 -41.1 -42.4 -69.3 l-31.3 -51.4 -9.8 19.4 -9.7 19.3 0.6 -23.7 c0.4 -14 0.2 -23.8 -0.3 -23.8 -0.5 0.1 -9 6.6 -18.9 14.4 -9.9 7.9 -18.2 14.3 -18.3 14.1 -0.2 -0.2 4.4 -9.4 10.3 -20.5 5.8 -11.1 10.4 -20.4 10.1 -20.7 -0.4 -0.4 -32 7.3 -43.4 10.6 -2 0.6 -3 0.6 -2.7 0 0.4 -0.5 8.7 -7 18.6 -14.5 9.9 -7.5 17.7 -14 17.2 -14.3 -0.4 -0.4 -10.2 -2 -21.8 -3.6 -11.6 -1.6 -22.1 -3.1 -23.5 -3.5 -1.8 -0.5 3.1 -2 17.5 -5.4 24.8 -5.9 27.5 -6.6 27.5 -7 0 -0.2 -6.5 -4.1 -14.4 -8.7 -10.6 -6.1 -14.2 -8.7 -13.8 -9.9 0.4 -1.1 0.2 -1.2 -0.8 -0.4 -0.9 0.9 -2.6 0.4 -7.1 -2.3 -3.3 -2 -5.8 -3.7 -5.7 -3.8 0.2 -0.2 11.1 1.4 24.3 3.5 13.2 2.1 24.1 3.7 24.2 3.6 0.2 -0.2 -6.2 -9 -14.2 -19.6 -8 -10.6 -14.5 -19.5 -14.5 -19.6 0 -0.2 7.8 4.3 17.3 10.1 9.4 5.7 17.3 10.2 17.5 10 0.1 -0.1 -10.3 -28.8 -23.3 -63.6 -13 -34.9 -25.2 -67.7 -27.1 -72.9 -1.9 -5.2 -7.9 -21.4 -13.3 -36 -5.4 -14.6 -9.7 -26.6 -9.6 -26.8 0.6 -0.8 148.4 99 148.9 100.6 0.3 0.9 1.1 5.5 1.7 10.1 l1.3 8.4 5.5 3.9 c18.9 13.2 24.3 16.8 25 16.8 0.5 0 1.5 0.7 2.2 1.6 0.7 0.9 2.2 2 3.4 2.5 1.1 0.5 4 2.5 6.5 4.4 2.5 1.9 5.5 3.9 6.7 4.4 1.1 0.6 2.4 1.5 2.8 2.1 0.4 0.6 1.7 1.6 2.8 2.1 1.2 0.5 9 5.6 17.2 11.4 8.3 5.7 24.7 16.9 36.6 25 11.9 8 22.3 15.3 23.1 16.3 0.9 0.9 2.2 3.7 3.1 6.2 0.8 2.5 2.9 8.3 4.7 13 3.3 9 13.4 36.3 18 49 3.3 8.9 -0.5 7.7 37.5 12 14.9 1.6 29.3 3.3 32.1 3.6 l5.1 0.6 14.9 -22.3 c8.2 -12.3 15.3 -23.2 15.9 -24.1 0.5 -1 2.2 -3.4 3.6 -5.5 1.4 -2.1 3.9 -5.8 5.5 -8.3 5.2 -8 5.4 -8.1 19.6 -11 33.8 -7.1 38.2 -7.9 38.6 -7.5 0.3 0.2 -0.9 2.1 -2.5 4.2 -4.4 5.6 -4.5 6.1 -2 5.6 14 -2.4 46.2 -7.2 46.4 -6.9 0.2 0.1 -9.2 5.8 -20.7 12.6 -11.6 6.7 -21 12.4 -20.8 12.6 0.2 0.1 10.6 2.8 23.2 5.8 12.6 3 23 5.7 23.3 5.9 0.3 0.4 -12.2 2.3 -21.7 3.3 -8.3 0.8 -26 3.8 -26 4.4 0 0.3 8.3 6.8 18.5 14.5 10.1 7.7 18.1 14.1 17.7 14.3 -0.4 0.1 -10.9 -2.4 -23.2 -5.6 -12.4 -3.2 -22.6 -5.6 -22.8 -5.2 -0.1 0.3 4.5 9.6 10.2 20.5 5.8 11 10.3 20.2 10.1 20.4 -0.3 0.2 -2.4 -1.2 -4.7 -3.1 -2.4 -1.9 -10.8 -8.5 -18.7 -14.8 l-14.4 -11.3 0.7 23.7 c0.4 13 0.4 23.6 0.1 23.6 -0.2 0 -3.7 -6.4 -7.6 -14.1 -3.9 -7.8 -7.4 -13.8 -7.8 -13.3 -0.4 0.5 -10.3 18.2 -21.8 39.4 -43.1 78.7 -57.8 105.7 -61.8 113 -2.3 4.1 -7.3 13.4 -11.2 20.5 -3.9 7.2 -8.9 16 -11 19.6 l-3.9 6.7 -2.8 -1.5 c-13.2 -6.9 -36.2 -10 -54.9 -7.3 -8.5 1.3 -22.2 4.7 -25.7 6.5 -5.3 2.7 -6.8 2.7 -8.4 0.3z m-111.7 -356.1 c11.3 -13 20.6 -24.2 20.6 -24.7 0 -0.5 -26 -19.8 -57.8 -43 -31.8 -23.1 -57 -40.8 -55.9 -39.3 10 13.7 48.5 55.7 62.9 68.5 8.3 7.5 11.2 10.6 10.7 11.7 -0.4 0.9 -1.9 4.8 -3.2 8.6 -2.3 6.4 -2.6 8.7 -2.9 27.5 l-0.4 20.5 2.7 -3 c1.5 -1.6 12 -13.7 23.3 -26.8z"/>
  <path d="M379 211.1 c-4.7 -2.5 -13.9 -7.5 -20.5 -11 -14.3 -7.6 -21.3 -11.4 -28 -15.1 -7 -3.8 -16 -8.6 -30 -16 -6.6 -3.5 -12.4 -6.6 -13 -7 -0.5 -0.4 -6.4 -3.6 -13 -7 -6.6 -3.5 -14.9 -7.9 -18.5 -9.9 -3.6 -2 -9.5 -5.2 -13.2 -7.1 -3.7 -1.9 -6.5 -3.7 -6.3 -4.1 0.3 -0.3 6.8 -3.2 14.5 -6.4 7.7 -3.2 14 -6.1 14 -6.5 0 -0.5 -3.7 -8.3 -8.1 -17.4 -4.5 -9.2 -8 -16.8 -7.8 -17 0.2 -0.2 8.3 6.8 17.9 15.6 l17.5 16 0.3 -3.3 c0.1 -1.9 -0.4 -12.6 -1.2 -23.9 -0.7 -11.3 -1.2 -20.7 -1 -20.9 0.2 -0.2 1.5 2 2.8 5 1.3 3 6.1 13.1 10.6 22.4 l8.2 17 1.7 -4.5 c0.9 -2.5 4.6 -12.5 8.1 -22.3 7.6 -21 7.4 -21.2 8.5 7.6 0.3 10.6 0.9 20 1.2 21.1 0.4 1.5 3.8 -1.4 17.4 -15 9.3 -9.3 16.9 -16.6 16.9 -16.4 0 0.3 -2.9 8.2 -6.5 17.5 -3.6 9.4 -6.5 17.5 -6.5 18.1 0 0.9 21.4 9.7 63.6 26.3 l5.2 2 71.8 -61.5 c39.5 -33.8 72 -61.1 72.2 -60.6 0.2 0.7 -47.4 173.2 -48.1 173.8 -0.2 0.2 -20.1 3 -26.2 3.7 -1.9 0.2 -2 -0.6 -2.6 -12.8 -0.7 -15.5 -2.9 -24.6 -6.9 -29.7 -1.7 -2 -3 -4.4 -3 -5.2 0 -0.8 6.2 -9.8 13.8 -19.8 12 -15.9 29.9 -40.7 41.2 -57.3 l3.4 -5 -6.4 5.7 c-23.7 20.9 -88.4 79.5 -88.7 80.3 -0.1 0.6 8.3 10.8 18.8 22.9 10.4 12 18.8 22 18.7 22.2 -0.3 0.2 -12.3 1.9 -65.8 8.9 -16.1 2.1 -17.3 1.9 -27 -3.4z"/>
 </g>
</svg>